<svg width="62.000000" height="63.000000" viewBox="0 0 62 63" fill="none" xmlns="http://www.w3.org/2000/svg" xmlns:xlink="http://www.w3.org/1999/xlink">
	<desc>
			Created with Pixso.
	</desc>
	<defs>
		<clipPath id="clip2_42">
			<rect id="secure-payment-line" width="62.000000" height="63.000000" fill="white" fill-opacity="0"/>
		</clipPath>
	</defs>
	<rect id="secure-payment-line" width="62.000000" height="63.000000" fill="#FFFFFF" fill-opacity="0"/>
	<g clip-path="url(#clip2_42)">
		<path id="矢量 83" d="M28.41 5.25L47.26 11.23C47.79 11.4 48.25 11.73 48.58 12.18C48.9 12.63 49.08 13.18 49.08 13.74L49.08 18.37L54.25 18.37C54.93 18.37 55.59 18.65 56.07 19.14C56.56 19.63 56.83 20.3 56.83 21L56.83 42C56.83 42.69 56.56 43.36 56.07 43.85C55.59 44.34 54.93 44.62 54.25 44.62L45.93 44.62C44.93 45.96 43.71 47.14 42.31 48.11L28.41 57.75L14.51 48.12C12.43 46.67 10.72 44.73 9.54 42.46C8.36 40.19 7.74 37.67 7.75 35.1L7.75 13.74C7.75 13.18 7.92 12.63 8.25 12.18C8.57 11.73 9.03 11.4 9.56 11.23L28.41 5.25ZM28.41 10.74L12.91 15.67L12.91 35.1C12.91 36.71 13.27 38.29 13.97 39.74C14.67 41.18 15.68 42.44 16.94 43.42L17.42 43.78L28.41 51.39L38.18 44.62L25.83 44.62C25.14 44.62 24.49 44.34 24 43.85C23.52 43.36 23.25 42.69 23.25 42L23.25 21C23.25 20.3 23.52 19.63 24 19.14C24.49 18.65 25.14 18.37 25.83 18.37L43.91 18.37L43.91 15.67L28.41 10.74ZM28.41 31.5L28.41 39.37L51.66 39.37L51.66 31.5L28.41 31.5ZM28.41 26.25L51.66 26.25L51.66 23.62L28.41 23.62L28.41 26.25Z" fill="#444444" fill-opacity="1.000000" fill-rule="evenodd"/>
	</g>
</svg>
