<svg width="62.000000" height="63.000000" viewBox="0 0 62 63" fill="none" xmlns="http://www.w3.org/2000/svg" xmlns:xlink="http://www.w3.org/1999/xlink">
	<desc>
			Created with Pixso.
	</desc>
	<defs>
		<clipPath id="clip42_9">
			<rect id="profile-line" width="62.000000" height="63.000000" fill="white" fill-opacity="0"/>
		</clipPath>
	</defs>
	<rect id="profile-line" width="62.000000" height="63.000000" fill="#FFFFFF" fill-opacity="0"/>
	<g clip-path="url(#clip42_9)">
		<path id="矢量 129" d="M5.16 10.48C5.17 9.79 5.44 9.13 5.92 8.64C6.4 8.15 7.05 7.88 7.72 7.87L54.27 7.87C55.68 7.87 56.83 9.04 56.83 10.48L56.83 52.51C56.82 53.2 56.55 53.86 56.07 54.35C55.59 54.84 54.94 55.11 54.27 55.12L7.72 55.12C7.04 55.12 6.39 54.84 5.91 54.36C5.43 53.87 5.16 53.2 5.16 52.51L5.16 10.48ZM10.33 13.12L10.33 49.87L51.66 49.87L51.66 13.12L10.33 13.12ZM15.5 18.37L31 18.37L31 34.12L15.5 34.12L15.5 18.37ZM20.66 23.62L20.66 28.87L25.83 28.87L25.83 23.62L20.66 23.62ZM15.5 39.37L46.5 39.37L46.5 44.62L15.5 44.62L15.5 39.37ZM36.16 18.37L46.5 18.37L46.5 23.62L36.16 23.62L36.16 18.37ZM36.16 28.87L46.5 28.87L46.5 34.12L36.16 34.12L36.16 28.87Z" fill="#444444" fill-opacity="1.000000" fill-rule="evenodd"/>
	</g>
</svg>
