<svg width="62.000000" height="63.000000" viewBox="0 0 62 63" fill="none" xmlns="http://www.w3.org/2000/svg" xmlns:xlink="http://www.w3.org/1999/xlink">
	<desc>
			Created with Pixso.
	</desc>
	<defs>
		<clipPath id="clip2_36">
			<rect id="shopping-cart-2-line" width="62.000000" height="63.000000" fill="white" fill-opacity="0"/>
		</clipPath>
	</defs>
	<rect id="shopping-cart-2-line" width="62.000000" height="63.000000" fill="#FFFFFF" fill-opacity="0"/>
	<g clip-path="url(#clip2_36)">
		<path id="矢量 95" d="M10.33 16.83L1.95 8.32L5.61 4.61L13.98 13.12L53.36 13.12C53.76 13.12 54.16 13.22 54.52 13.4C54.88 13.58 55.19 13.85 55.43 14.18C55.67 14.51 55.83 14.89 55.9 15.29C55.97 15.69 55.95 16.11 55.83 16.5L49.63 37.5C49.47 38.04 49.14 38.51 48.7 38.85C48.25 39.19 47.71 39.37 47.16 39.37L15.49 39.37L15.49 44.62L43.91 44.62L43.91 49.87L12.91 49.87C12.23 49.87 11.57 49.59 11.08 49.1C10.6 48.61 10.33 47.94 10.33 47.25L10.33 16.83ZM15.49 18.37L15.49 34.12L45.23 34.12L49.88 18.37L15.49 18.37ZM14.2 60.37C13.18 60.37 12.19 59.96 11.46 59.22C10.74 58.48 10.33 57.48 10.33 56.43C10.33 55.39 10.74 54.39 11.46 53.65C12.19 52.91 13.18 52.5 14.2 52.5C15.23 52.5 16.22 52.91 16.94 53.65C17.67 54.39 18.08 55.39 18.08 56.43C18.08 57.48 17.67 58.48 16.94 59.22C16.22 59.96 15.23 60.37 14.2 60.37ZM45.2 60.37C44.18 60.37 43.19 59.96 42.46 59.22C41.74 58.48 41.33 57.48 41.33 56.43C41.33 55.39 41.74 54.39 42.46 53.65C43.19 52.91 44.18 52.5 45.2 52.5C46.23 52.5 47.22 52.91 47.94 53.65C48.67 54.39 49.08 55.39 49.08 56.43C49.08 57.48 48.67 58.48 47.94 59.22C47.22 59.96 46.23 60.37 45.2 60.37Z" fill="#444444" fill-opacity="1.000000" fill-rule="evenodd"/>
	</g>
</svg>
